<?xml version="1.0" encoding="utf-8"?>
<!-- Generator: Adobe Illustrator 16.0.0, SVG Export Plug-In . SVG Version: 6.00 Build 0)  -->
<!DOCTYPE svg PUBLIC "-//W3C//DTD SVG 1.1//EN" "http://www.w3.org/Graphics/SVG/1.1/DTD/svg11.dtd">
<svg version="1.1" id="Layer_1" xmlns="http://www.w3.org/2000/svg" xmlns:xlink="http://www.w3.org/1999/xlink" x="0px" y="0px"
	 width="1000px" height="1000px" viewBox="0 0 1000 1000" enable-background="new 0 0 1000 1000" xml:space="preserve">
<circle fill="none" stroke="#000000" stroke-width="30" stroke-miterlimit="10" cx="500" cy="500" r="150"/>
<rect x="350" y="100" fill="none" stroke="#000000" stroke-width="30" stroke-miterlimit="10" width="300" height="800"/>
<rect x="100" y="350" fill="none" stroke="#000000" stroke-width="30" stroke-miterlimit="10" width="800" height="300"/>
<line fill="none" stroke="#000000" stroke-width="30" stroke-miterlimit="10" x1="103.08" y1="100" x2="290.58" y2="100"/>
<line fill="none" stroke="#000000" stroke-width="30" stroke-miterlimit="10" x1="99.326" y1="100.417" x2="99.326" y2="287.917"/>
<rect x="94.826" y="95.5" fill="none" stroke="#000000" stroke-width="30" stroke-miterlimit="10" width="9" height="9"/>
<line fill="none" stroke="#000000" stroke-width="30" stroke-miterlimit="10" x1="891.746" y1="104.917" x2="704.246" y2="104.917"/>
<line fill="none" stroke="#000000" stroke-width="30" stroke-miterlimit="10" x1="895.5" y1="105.334" x2="895.5" y2="292.834"/>
<rect x="891" y="100.417" fill="none" stroke="#000000" stroke-width="30" stroke-miterlimit="10" width="9" height="9"/>
<rect x="900" y="900" fill="none" stroke="#000000" stroke-width="30" stroke-miterlimit="10" width="9" height="9"/>
<rect x="99.326" y="904.5" fill="none" stroke="#000000" stroke-width="30" stroke-miterlimit="10" width="9" height="9"/>
<line fill="none" stroke="#000000" stroke-width="30" stroke-miterlimit="10" x1="103.826" y1="721.5" x2="103.826" y2="909"/>
<line fill="none" stroke="#000000" stroke-width="30" stroke-miterlimit="10" x1="904.5" y1="717" x2="904.5" y2="904.5"/>
<line fill="none" stroke="#000000" stroke-width="30" stroke-miterlimit="10" x1="904.5" y1="904.5" x2="717" y2="904.5"/>
<line fill="none" stroke="#000000" stroke-width="30" stroke-miterlimit="10" x1="291.326" y1="909" x2="103.826" y2="909"/>
</svg>
